<svg xmlns="http://www.w3.org/2000/svg" width="400" height="400" viewBox="225.197 225.197 400 400">
  <path fill="#221800" d="M589.637 349.267c-21.203 3.569-16.957 29.202-.328 31.086 16.629 1.883 8.088-18.085 8.088-18.085s9.912 1.391 10.828 12.607c.917 11.224-19.962 19.944-32.453 16.022-16.146-5.07-12.199-19.198-15.635-29.699-3.037-9.292-9.178-15.413-17.314-16.526-13.418-1.835-15.966 7.89-15.966 7.89s11.427-9.334 15.22 4.956c1.67 6.313-9.014 12.611-1.647 25.385a28.722 28.722 0 0 0 2.693 3.875l-1.554.003c-16.194.021-27.904-5.867-35.966-22.355-10.529-21.52-7.061-37.034 2.448-39.67 14.502-4.019 15.072 7.665 15.072 7.665s-7.734-7.869-12.183-.997c-4.298 6.651-.229 13.317 6.045 14.223 9.034 1.317 15.152-4.938 14.483-12.342-.663-7.407-5.402-15.595-18.453-15.664-27.113-.15-28.115 24.398-17.84 41.229-7.833-5.068-17.789-8.075-31.583-5.944-19.626 3.034-33.653 17.193-38.395 33.119-4.741-15.924-18.769-30.085-38.395-33.119-13.791-2.131-23.746.875-31.581 5.942 10.27-16.831 9.268-41.379-17.842-41.229-13.051.072-17.79 8.263-18.454 15.664-.665 7.406 5.451 13.66 14.491 12.344 6.265-.907 10.343-7.571 6.037-14.222-4.447-6.872-12.178.994-12.178.994s.563-11.679 15.07-7.66c9.508 2.635 12.976 18.149 2.449 39.672-8.065 16.487-19.775 22.373-35.972 22.352-.537-.001-1.053-.001-1.553-.003a28.885 28.885 0 0 0 2.693-3.876c7.368-12.773-3.315-19.073-1.639-25.384 3.788-14.29 15.215-4.957 15.215-4.957s-2.553-9.725-15.965-7.885c-8.136 1.11-14.282 7.229-17.321 16.521-3.434 10.504.518 24.628-15.628 29.701-12.497 3.923-33.37-4.798-32.46-16.021.919-11.218 10.83-12.609 10.83-12.609s-8.541 19.966 8.089 18.081c16.625-1.882 20.878-27.512-.328-31.084-21.205-3.574-39.736 14.422-33.518 31.023 6.274 16.751 22.377 22.014 36.211 22.752 1.386 3.769 5.292 9.508 16.317 12.009 17.119 3.88 37.1 1.227 44.781 4.99 16.683 8.181 8.903 21.797 8.903 21.797s-3.761-11.089-13.875-9.63c-14.21 2.046-12.147 15.646-2.461 21.154 9.685 5.511 20.245 2.131 25.398-5.72 5.151-7.85 3.111-22.369-9.5-33.196-8.39-7.209-22.151-12.376-34.508-14.882 7.494.225 16.653-.42 26.417-3.199 16.366-4.66 29.458-21.292 39.879-27.459 11.893-7.042 22.347-6.738 31.943 1.85 13.737 12.292 10.47 32.497 1.793 33.594-6.947.873-10.996-4.513-10.135-8.76.852-4.241 6.601-7.341 6.601-7.341s-16.302-5.245-21.097 11.543c-3.479 12.175 3.571 24.494 17.938 27.679 3.656.811 7.501.986 11.253.465a25.246 25.246 0 0 1-3.446 1.677c-11.523 4.518-17.185-2.622-26.408-6.095-4.227-1.589-10.285-4.703-16.924-3.273-18.89 4.069-10.158 27.028-1.264 29.915 5.913 1.924 9.204.883 20.801-6.473 11.597-7.352 14.16-.201 11.864 4.653-2.661 5.627-12.89-.989-22.918 5.18-10.026 6.17-7.47 13.627-12.08 23.96-4.607 10.325-1.528 10.105-1.528 10.105s2.342-3.737 7.217-4.708c4.024-.809 5.76 2.931 14.188-1.129 8.424-4.06 22.821-23.032 22.821-23.032l-10.251 13.859s-7.948 8.693-14.424 19.887c-6.476 11.198-5.24 32.155 14.57 38.578 27.536 8.921 31.958-19.688 32.659-22.744.705-3.055.293-7.665-3.253-1.92-3.555 5.746-13.767 10.251-21.728 6.138-4.388-2.266-11.008-8.94-3.793-24.208 7.827-16.566 21.277-28.797 32.651-52.218a39.863 39.863 0 0 0 3.342-10.193 39.934 39.934 0 0 0 3.342 10.19c11.372 23.425 24.824 35.659 32.651 52.223 7.216 15.268.595 21.943-3.793 24.208-7.962 4.11-18.178-.393-21.727-6.137-3.55-5.746-3.962-1.139-3.259 1.919.711 3.055 5.131 31.662 32.662 22.741 19.813-6.423 21.049-27.38 14.57-38.576-6.476-11.192-14.422-19.887-14.422-19.887l-10.246-13.859s14.396 18.97 22.818 23.027c8.429 4.066 10.163.327 14.19 1.131 4.87.975 7.213 4.713 7.213 4.713s3.082.219-1.525-10.108c-4.61-10.33-2.059-17.787-12.083-23.959-10.021-6.168-20.257.449-22.915-5.181-2.297-4.854.264-12.003 11.858-4.653 11.597 7.356 14.888 8.398 20.805 6.476 8.895-2.889 17.626-25.849-1.261-29.917-6.64-1.43-12.697 1.684-16.928 3.273-9.223 3.471-14.882 10.608-26.405 6.093a25.315 25.315 0 0 1-3.439-1.673c3.75.52 7.592.344 11.247-.466 14.367-3.185 21.419-15.506 17.935-27.68-4.793-16.788-21.097-11.546-21.097-11.546s5.752 3.103 6.604 7.344c.856 4.248-3.185 9.635-10.137 8.755-8.678-1.091-11.945-21.295 1.795-33.587 9.593-8.586 20.045-8.89 31.941-1.851 10.42 6.164 23.51 22.797 39.875 27.456 9.759 2.781 18.916 3.428 26.408 3.204-12.355 2.506-26.108 7.674-34.496 14.88-12.607 10.828-14.65 25.347-9.503 33.196 5.157 7.848 15.715 11.229 25.405 5.722 9.686-5.506 11.745-19.107-2.461-21.158-10.124-1.455-13.875 9.636-13.875 9.636s-7.782-13.621 8.901-21.797c7.682-3.767 27.663-1.112 44.781-4.993 11.026-2.501 14.932-8.239 16.319-12.007 13.835-.738 29.936-6.003 36.208-22.754 6.226-16.607-12.306-34.602-33.51-31.026zm-164.439 59.851c.037.116.069.236.107.351-.037.201-.072.408-.107.616-.036-.206-.071-.413-.108-.614.038-.117.071-.238.108-.353z"/>
</svg>
